<?xml version="1.0" encoding="UTF-8" standalone="no"?>
<!DOCTYPE svg PUBLIC "-//W3C//DTD SVG 1.1//EN"
 "http://www.w3.org/Graphics/SVG/1.1/DTD/svg11.dtd">
<!-- Generated by graphviz version 2.43.0 (0)
 -->
<!-- Title: %3 Pages: 1 -->
<svg width="39pt" height="2pt"
 viewBox="0.00 0.00 2811.00 179.00" xmlns="http://www.w3.org/2000/svg" xmlns:xlink="http://www.w3.org/1999/xlink">
<g id="graph0" class="graph" transform="scale(0.01 0.01) rotate(0) translate(4 175)">
<title>%3</title>
<polygon fill="white" stroke="transparent" points="-4,4 -4,-175 2807,-175 2807,4 -4,4"/>
<!-- Person -->
<g id="node1" class="node">
<title>Person</title>
<path fill="#aed6f1" stroke="#333333" d="M2550,-79C2550,-79 2791,-79 2791,-79 2797,-79 2803,-85 2803,-91 2803,-91 2803,-108 2803,-108 2803,-114 2797,-120 2791,-120 2791,-120 2550,-120 2550,-120 2544,-120 2538,-114 2538,-108 2538,-108 2538,-91 2538,-91 2538,-85 2544,-79 2550,-79"/>
<text text-anchor="middle" x="2561.5" y="-97" font-family="Helvetica,sans-Serif" font-size="10.00">Person</text>
<polyline fill="none" stroke="#333333" points="2585,-79 2585,-120 "/>
<text text-anchor="start" x="2593" y="-108" font-family="Helvetica,sans-Serif" font-size="10.00">+ name: str</text>
<text text-anchor="start" x="2593" y="-97" font-family="Helvetica,sans-Serif" font-size="10.00">+ age: int</text>
<text text-anchor="middle" x="2621" y="-86" font-family="Helvetica,sans-Serif" font-size="10.00">+ gender: str</text>
<polyline fill="none" stroke="#333333" points="2657,-79 2657,-120 "/>
<text text-anchor="start" x="2665" y="-102.5" font-family="Helvetica,sans-Serif" font-size="10.00">+ __init__(name, age, gender)</text>
<text text-anchor="start" x="2665" y="-91.5" font-family="Helvetica,sans-Serif" font-size="10.00">+ show() </text>
</g>
<!-- Employee -->
<g id="node2" class="node">
<title>Employee</title>
<path fill="#a3e4d7" stroke="#333333" d="M2053,-81.5C2053,-81.5 2381,-81.5 2381,-81.5 2387,-81.5 2393,-87.5 2393,-93.5 2393,-93.5 2393,-105.5 2393,-105.5 2393,-111.5 2387,-117.5 2381,-117.5 2381,-117.5 2053,-117.5 2053,-117.5 2047,-117.5 2041,-111.5 2041,-105.5 2041,-105.5 2041,-93.5 2041,-93.5 2041,-87.5 2047,-81.5 2053,-81.5"/>
<text text-anchor="middle" x="2071" y="-97" font-family="Helvetica,sans-Serif" font-size="10.00">Employee</text>
<polyline fill="none" stroke="#333333" points="2101,-81.5 2101,-117.5 "/>
<text text-anchor="middle" x="2147" y="-97" font-family="Helvetica,sans-Serif" font-size="10.00">+ department: str</text>
<polyline fill="none" stroke="#333333" points="2193,-81.5 2193,-117.5 "/>
<text text-anchor="start" x="2201" y="-102.5" font-family="Helvetica,sans-Serif" font-size="10.00">+ __init__(name, age, gender, department)</text>
<text text-anchor="start" x="2201" y="-91.5" font-family="Helvetica,sans-Serif" font-size="10.00">+ show() </text>
</g>
<!-- Employee&#45;&gt;Person -->
<g id="edge1" class="edge">
<title>Employee&#45;&gt;Person</title>
<path fill="none" stroke="#1f618d" d="M2393.21,-99.5C2437.73,-99.5 2485.01,-99.5 2527.64,-99.5"/>
<polygon fill="none" stroke="#1f618d" points="2527.8,-103 2537.8,-99.5 2527.8,-96 2527.8,-103"/>
</g>
<!-- HeadOfDepartment -->
<g id="node3" class="node">
<title>HeadOfDepartment</title>
<path fill="#f9e79f" stroke="#333333" d="M1587,-0.5C1587,-0.5 1884,-0.5 1884,-0.5 1890,-0.5 1896,-6.5 1896,-12.5 1896,-12.5 1896,-24.5 1896,-24.5 1896,-30.5 1890,-36.5 1884,-36.5 1884,-36.5 1587,-36.5 1587,-36.5 1581,-36.5 1575,-30.5 1575,-24.5 1575,-24.5 1575,-12.5 1575,-12.5 1575,-6.5 1581,-0.5 1587,-0.5"/>
<text text-anchor="middle" x="1625.5" y="-16" font-family="Helvetica,sans-Serif" font-size="10.00">HeadOfDepartment</text>
<polyline fill="none" stroke="#333333" points="1676,-0.5 1676,-36.5 "/>
<text text-anchor="middle" x="1686" y="-16" font-family="Helvetica,sans-Serif" font-size="10.00"> </text>
<polyline fill="none" stroke="#333333" points="1696,-0.5 1696,-36.5 "/>
<text text-anchor="start" x="1704" y="-21.5" font-family="Helvetica,sans-Serif" font-size="10.00">+ __init__(name, age, gender, department)</text>
<text text-anchor="start" x="1704" y="-10.5" font-family="Helvetica,sans-Serif" font-size="10.00">+ show() </text>
</g>
<!-- HeadOfDepartment&#45;&gt;Employee -->
<g id="edge2" class="edge">
<title>HeadOfDepartment&#45;&gt;Employee</title>
<path fill="none" stroke="#1f618d" d="M1843.21,-36.53C1919.17,-49.36 2021.18,-66.59 2099.3,-79.79"/>
<polygon fill="none" stroke="#1f618d" points="2098.74,-83.24 2109.18,-81.46 2099.91,-76.34 2098.74,-83.24"/>
</g>
<!-- Department -->
<g id="node4" class="node">
<title>Department</title>
<path fill="#f5b7b1" stroke="#333333" d="M970,-80C970,-80 1403,-80 1403,-80 1409,-80 1415,-86 1415,-92 1415,-92 1415,-109 1415,-109 1415,-115 1409,-121 1403,-121 1403,-121 970,-121 970,-121 964,-121 958,-115 958,-109 958,-109 958,-92 958,-92 958,-86 964,-80 970,-80"/>
<text text-anchor="middle" x="992" y="-98" font-family="Helvetica,sans-Serif" font-size="10.00">Department</text>
<polyline fill="none" stroke="#333333" points="1026,-80 1026,-121 "/>
<text text-anchor="start" x="1034" y="-109" font-family="Helvetica,sans-Serif" font-size="10.00">+ name: str</text>
<text text-anchor="start" x="1034" y="-98" font-family="Helvetica,sans-Serif" font-size="10.00">+ employees: List[Employee]</text>
<text text-anchor="middle" x="1128.5" y="-87" font-family="Helvetica,sans-Serif" font-size="10.00">+ head_of_department: HeadOfDepartment</text>
<polyline fill="none" stroke="#333333" points="1231,-80 1231,-121 "/>
<text text-anchor="start" x="1239" y="-103.5" font-family="Helvetica,sans-Serif" font-size="10.00">+ __init__(name, head_of_department)</text>
<text text-anchor="start" x="1239" y="-92.5" font-family="Helvetica,sans-Serif" font-size="10.00">+ show() </text>
</g>
<!-- Department&#45;&gt;Employee -->
<g id="edge4" class="edge">
<title>Department&#45;&gt;Employee</title>
<path fill="none" stroke="#117a65" stroke-dasharray="5,2" d="M1415.37,-109.69C1571.27,-114.65 1782.66,-118.78 1969,-113.5 1989.02,-112.93 2009.93,-112.11 2030.76,-111.14"/>
<polygon fill="#117a65" stroke="#117a65" points="2040.97,-110.65 2031.2,-115.62 2035.98,-110.89 2030.98,-111.13 2030.98,-111.13 2030.98,-111.13 2035.98,-110.89 2030.77,-106.63 2040.97,-110.65 2040.97,-110.65"/>
<text text-anchor="middle" x="1735.5" y="-119.3" font-family="Helvetica,sans-Serif" font-size="9.00">has</text>
</g>
<!-- Department&#45;&gt;HeadOfDepartment -->
<g id="edge3" class="edge">
<title>Department&#45;&gt;HeadOfDepartment</title>
<path fill="none" stroke="#117a65" stroke-dasharray="5,2" d="M1324.47,-79.97C1410.16,-67.12 1519.9,-50.67 1604.28,-38.02"/>
<polygon fill="#117a65" stroke="#117a65" points="1614.18,-36.54 1604.96,-42.47 1609.24,-37.28 1604.29,-38.02 1604.29,-38.02 1604.29,-38.02 1609.24,-37.28 1603.62,-33.57 1614.18,-36.54 1614.18,-36.54"/>
<text text-anchor="middle" x="1495" y="-58.3" font-family="Helvetica,sans-Serif" font-size="9.00">has</text>
</g>
<!-- Company -->
<g id="node5" class="node">
<title>Company</title>
<path fill="#d2b4de" stroke="#333333" d="M290,-30.5C290,-30.5 767,-30.5 767,-30.5 773,-30.5 779,-36.5 779,-42.5 779,-42.5 779,-158.5 779,-158.5 779,-164.5 773,-170.5 767,-170.5 767,-170.5 290,-170.5 290,-170.5 284,-170.5 278,-164.5 278,-158.5 278,-158.5 278,-42.5 278,-42.5 278,-36.5 284,-30.5 290,-30.5"/>
<text text-anchor="middle" x="307.5" y="-98" font-family="Helvetica,sans-Serif" font-size="10.00">Company</text>
<polyline fill="none" stroke="#333333" points="337,-30.5 337,-170.5 "/>
<text text-anchor="start" x="345" y="-103.5" font-family="Helvetica,sans-Serif" font-size="10.00">+ name: str</text>
<text text-anchor="middle" x="416" y="-92.5" font-family="Helvetica,sans-Serif" font-size="10.00">+ departments: List[Department]</text>
<polyline fill="none" stroke="#333333" points="495,-30.5 495,-170.5 "/>
<text text-anchor="start" x="503" y="-158.5" font-family="Helvetica,sans-Serif" font-size="10.00">+ __init__(name)</text>
<text text-anchor="start" x="503" y="-147.5" font-family="Helvetica,sans-Serif" font-size="10.00">+ add_department(department)</text>
<text text-anchor="start" x="503" y="-136.5" font-family="Helvetica,sans-Serif" font-size="10.00">+ add_employee(department, employee)</text>
<text text-anchor="start" x="503" y="-125.5" font-family="Helvetica,sans-Serif" font-size="10.00">+ add_head_of_department(department, head_of_department)</text>
<text text-anchor="start" x="503" y="-114.5" font-family="Helvetica,sans-Serif" font-size="10.00">+ show_Departments()</text>
<text text-anchor="start" x="503" y="-103.5" font-family="Helvetica,sans-Serif" font-size="10.00">+ show_Employees()</text>
<text text-anchor="start" x="503" y="-92.5" font-family="Helvetica,sans-Serif" font-size="10.00">+ show_HeadOfDepartments()</text>
<text text-anchor="start" x="503" y="-81.5" font-family="Helvetica,sans-Serif" font-size="10.00">+ show_biggest_department()</text>
<text text-anchor="start" x="503" y="-70.5" font-family="Helvetica,sans-Serif" font-size="10.00">+ show_gender_equalety_percentage()</text>
<text text-anchor="start" x="503" y="-59.5" font-family="Helvetica,sans-Serif" font-size="10.00">+ _get_all_employees()</text>
<text text-anchor="start" x="503" y="-48.5" font-family="Helvetica,sans-Serif" font-size="10.00">+ _count_genders(employees)</text>
<text text-anchor="start" x="503" y="-37.5" font-family="Helvetica,sans-Serif" font-size="10.00">+ _print_gender_percentage(gender_count, total_employees) </text>
</g>
<!-- Company&#45;&gt;Department -->
<g id="edge5" class="edge">
<title>Company&#45;&gt;Department</title>
<path fill="none" stroke="#117a65" stroke-dasharray="5,2" d="M779.38,-100.5C834.6,-100.5 892.95,-100.5 947.68,-100.5"/>
<polygon fill="#117a65" stroke="#117a65" points="957.85,-100.5 947.85,-105 952.85,-100.5 947.85,-100.5 947.85,-100.5 947.85,-100.5 952.85,-100.5 947.85,-96 957.85,-100.5 957.85,-100.5"/>
<text text-anchor="middle" x="868.5" y="-103.3" font-family="Helvetica,sans-Serif" font-size="9.00">contains</text>
</g>
<!-- main -->
<g id="node6" class="node">
<title>main</title>
<path fill="#f7dc6f" stroke="#333333" d="M12,-82.5C12,-82.5 102,-82.5 102,-82.5 108,-82.5 114,-88.5 114,-94.5 114,-94.5 114,-106.5 114,-106.5 114,-112.5 108,-118.5 102,-118.5 102,-118.5 12,-118.5 12,-118.5 6,-118.5 0,-112.5 0,-106.5 0,-106.5 0,-94.5 0,-94.5 0,-88.5 6,-82.5 12,-82.5"/>
<text text-anchor="middle" x="19" y="-98" font-family="Helvetica,sans-Serif" font-size="10.00">main</text>
<polyline fill="none" stroke="#333333" points="38,-82.5 38,-118.5 "/>
<text text-anchor="middle" x="48" y="-98" font-family="Helvetica,sans-Serif" font-size="10.00"> </text>
<polyline fill="none" stroke="#333333" points="58,-82.5 58,-118.5 "/>
<text text-anchor="start" x="66" y="-98" font-family="Helvetica,sans-Serif" font-size="10.00">+ main() </text>
</g>
<!-- main&#45;&gt;Company -->
<g id="edge6" class="edge">
<title>main&#45;&gt;Company</title>
<path fill="none" stroke="#af7ac5" stroke-dasharray="1,5" d="M114.17,-100.5C153.68,-100.5 209.7,-100.5 267.78,-100.5"/>
<polygon fill="#af7ac5" stroke="#af7ac5" points="277.88,-100.5 267.88,-105 272.88,-100.5 267.88,-100.5 267.88,-100.5 267.88,-100.5 272.88,-100.5 267.88,-96 277.88,-100.5 277.88,-100.5"/>
<text text-anchor="middle" x="196" y="-103.3" font-family="Helvetica,sans-Serif" font-size="9.00">uses</text>
</g>
</g>
</svg>
